<?xml version="1.0" encoding="UTF-8" standalone="no"?>
<!DOCTYPE svg PUBLIC "-//W3C//DTD SVG 1.1//EN" "http://www.w3.org/Graphics/SVG/1.1/DTD/svg11.dtd">
<svg width="100%" height="100%" viewBox="0 0 1198 1198" version="1.1" xmlns="http://www.w3.org/2000/svg" xmlns:xlink="http://www.w3.org/1999/xlink" xml:space="preserve" xmlns:serif="http://www.serif.com/" style="stroke-linecap:round;stroke-linejoin:round;stroke-miterlimit:1.5;">
    <g transform="matrix(1,0,0,1,-1577,-805)">
        <g>
            <g transform="matrix(1,0,0,1,56,-1567)">
                <path d="M2719,2465.86C2719,2414.06 2676.94,2372 2625.14,2372L1614.86,2372C1563.06,2372 1521,2414.06 1521,2465.86L1521,3476.14C1521,3527.94 1563.06,3570 1614.86,3570L2625.14,3570C2676.94,3570 2719,3527.94 2719,3476.14L2719,2465.86Z" style="fill:rgb(128,128,128);"/>
            </g>
            <g transform="matrix(0.530177,0,0,0.540117,1315.79,618.399)">
                <path d="M1994,759.171C1994,719.891 1961.51,688 1921.49,688L1323.51,688C1283.49,688 1251,719.891 1251,759.171L1251,2149.83C1251,2189.11 1283.49,2221 1323.51,2221L1921.49,2221C1961.51,2221 1994,2189.11 1994,2149.83L1994,759.171Z" style="fill:none;stroke:white;stroke-width:62.29px;"/>
            </g>
            <g transform="matrix(0.400382,0.290684,-0.199327,0.274549,1806.03,455.047)">
                <path d="M2537,1374L2335,1374L2335,2697L2435.73,2926.13L2537,2697L2537,1374Z" style="fill:rgb(128,128,128);stroke:white;stroke-width:47.91px;"/>
            </g>
            <g transform="matrix(1,0,0,1,-991,-586.976)">
                <path d="M3467.93,2254.5L3387.77,2194.8" style="fill:none;stroke:white;stroke-width:33.33px;"/>
            </g>
            <g transform="matrix(0.528946,0.666331,-0.472675,0.745656,1660.17,-1388.81)">
                <path d="M2054,1458L2242,1290" style="fill:none;stroke:white;stroke-width:33.36px;"/>
            </g>
            <g transform="matrix(0.0946388,0.666331,-0.0845709,0.745656,2198.55,-1451.45)">
                <path d="M2148,1458L2242,1374" style="fill:none;stroke:white;stroke-width:33.39px;"/>
            </g>
            <g transform="matrix(1,0,0,1,14.6303,-33.012)">
                <path d="M2057.47,1511.02L2230,1289.01" style="fill:none;stroke:white;stroke-width:16.67px;"/>
            </g>
            <g transform="matrix(1,0,0,1,14.6303,-32.5)">
                <path d="M2143.73,1489L2223,1384" style="fill:none;stroke:white;stroke-width:16.67px;"/>
            </g>
        </g>
    </g>
</svg>
