<?xml version="1.0" encoding="UTF-8" standalone="no"?>
<!DOCTYPE svg PUBLIC "-//W3C//DTD SVG 1.1//EN" "http://www.w3.org/Graphics/SVG/1.1/DTD/svg11.dtd">
<svg width="100%" height="100%" viewBox="0 0 8334 6250" version="1.1" xmlns="http://www.w3.org/2000/svg" xmlns:xlink="http://www.w3.org/1999/xlink" xml:space="preserve" xmlns:serif="http://www.serif.com/" style="fill-rule:evenodd;clip-rule:evenodd;stroke-linecap:round;stroke-linejoin:round;stroke-miterlimit:1.5;">
    <defs>
        <linearGradient id="_Linear1" x1="0" y1="0" x2="1" y2="0" gradientUnits="userSpaceOnUse" gradientTransform="matrix(8294.92,-22.5448,22.5448,8294.92,308.769,3021.34)"><stop offset="0" style="stop-color:rgb(38,38,38);stop-opacity:1"/><stop offset="1" style="stop-color:rgb(107,107,107);stop-opacity:1"/></linearGradient>
        <linearGradient id="_Linear3" x1="0" y1="0" x2="1" y2="0" gradientUnits="userSpaceOnUse" gradientTransform="matrix(14468.9,-74.0054,60.5199,16399.4,-6167.61,5005.92)"><stop offset="0" style="stop-color:black;stop-opacity:0"/><stop offset="0.45" style="stop-color:rgb(201,201,201);stop-opacity:0.79"/><stop offset="1" style="stop-color:white;stop-opacity:1"/></linearGradient>
        <linearGradient id="_Linear6" x1="0" y1="0" x2="1" y2="0" gradientUnits="userSpaceOnUse" gradientTransform="matrix(6400.55,0,0,6400.55,1282.28,5643.24)"><stop offset="0" style="stop-color:white;stop-opacity:1"/><stop offset="0.52" style="stop-color:rgb(67,106,153);stop-opacity:1"/><stop offset="1" style="stop-color:rgb(0,53,117);stop-opacity:1"/></linearGradient>
        <linearGradient id="_Linear7" x1="0" y1="0" x2="1" y2="0" gradientUnits="userSpaceOnUse" gradientTransform="matrix(287.474,0,0,614.561,1850.48,6375.4)"><stop offset="0" style="stop-color:rgb(0,95,209);stop-opacity:0.68"/><stop offset="1" style="stop-color:rgb(0,53,117);stop-opacity:0.68"/></linearGradient>
        <linearGradient id="_Linear8" x1="0" y1="0" x2="1" y2="0" gradientUnits="userSpaceOnUse" gradientTransform="matrix(280.015,704.987,-366.916,538.017,1846.58,5704.08)"><stop offset="0" style="stop-color:rgb(0,95,209);stop-opacity:0.57"/><stop offset="1" style="stop-color:rgb(0,53,117);stop-opacity:0.57"/></linearGradient>
        <linearGradient id="_Linear9" x1="0" y1="0" x2="1" y2="0" gradientUnits="userSpaceOnUse" gradientTransform="matrix(287.474,0,0,614.561,1850.48,6375.4)"><stop offset="0" style="stop-color:rgb(0,95,209);stop-opacity:0.61"/><stop offset="1" style="stop-color:rgb(0,53,117);stop-opacity:0.61"/></linearGradient>
        <linearGradient id="_Linear10" x1="0" y1="0" x2="1" y2="0" gradientUnits="userSpaceOnUse" gradientTransform="matrix(8550.95,2427.54,-2427.54,8550.95,3949.12,2715.09)"><stop offset="0" style="stop-color:white;stop-opacity:0"/><stop offset="0.52" style="stop-color:rgb(67,137,221);stop-opacity:0.74"/><stop offset="1" style="stop-color:rgb(0,95,209);stop-opacity:1"/></linearGradient>
        <linearGradient id="_Linear11" x1="0" y1="0" x2="1" y2="0" gradientUnits="userSpaceOnUse" gradientTransform="matrix(6400.55,0,0,6400.55,1282.28,5643.24)"><stop offset="0" style="stop-color:white;stop-opacity:0.2"/><stop offset="0.52" style="stop-color:rgb(67,106,153);stop-opacity:0.79"/><stop offset="1" style="stop-color:rgb(0,53,117);stop-opacity:1"/></linearGradient>
    </defs>
    <rect x="0" y="0" width="8333.33" height="6250" style="fill:url(#_Linear1);"/>
    
    <clipPath id="_clip2">
        <rect x="0" y="0" width="8333.33" height="6250"/>
    </clipPath>
    
    <g clip-path="url(#_clip2)">
        <g transform="matrix(1.03173,0,0,0.876371,1493.28,1483.19)">
            <rect x="-6167.61" y="-1780.91" width="13933.3" height="13073.2" style="fill:url(#_Linear3);"/>
            <clipPath id="_clip4">
                <rect x="-6167.61" y="-1780.91" width="13933.3" height="13073.2"/>
            </clipPath>
            <g clip-path="url(#_clip4)">
                <g transform="matrix(0.969245,0,0,1.14107,-1761.31,-1768.72)">
                    <path d="M3849.94,971.219C3849.94,971.219 3961.9,2575.28 5695.14,2809.25C6341.2,2896.46 6841.2,1453.7 7671.87,2858.96C8502.53,4264.22 8363.78,279.502 9829.31,-951.821C12009.1,-2783.29 10571.5,12138.5 10085.1,9652.64C9742.37,7900.9 8343.86,3774.51 6745.07,4598.01C5505.15,5236.66 4542.76,3392.76 4166.67,2507.48C3671.26,1341.36 3849.94,971.219 3849.94,971.219Z" style="fill:none;"/>
                    <clipPath id="_clip5">
                        <path d="M3849.94,971.219C3849.94,971.219 3961.9,2575.28 5695.14,2809.25C6341.2,2896.46 6841.2,1453.7 7671.87,2858.96C8502.53,4264.22 8363.78,279.502 9829.31,-951.821C12009.1,-2783.29 10571.5,12138.5 10085.1,9652.64C9742.37,7900.9 8343.86,3774.51 6745.07,4598.01C5505.15,5236.66 4542.76,3392.76 4166.67,2507.48C3671.26,1341.36 3849.94,971.219 3849.94,971.219Z"/>
                    </clipPath>
                    <g clip-path="url(#_clip5)">
                        <g transform="matrix(1,0,0,1,4910.67,-700.905)">
                            <path d="M-500,2500C-500,2500 145.947,5906.85 1625,5544.33C2071.25,5434.95 2719.2,3407.49 3845.79,5000C5174.86,6878.75 8672.16,1427.3 8750,2334.95C8756.74,2413.59 12911.6,10794.4 7750,5237.5C7255.78,4705.43 6555.41,6002.3 5500,6010.46C4764.7,6016.14 3766.71,5680.47 3306.96,4755.68C2780.84,3697.4 2046.92,6460.53 1000,5650C-209.508,4713.59 -500,2500 -500,2500Z" style="fill:url(#_Linear6);"/>
                        </g>
                        <g transform="matrix(1,0,0,1,1761.31,-1769.18)">
                            <g transform="matrix(1.11679,0,0,1.03598,-494.851,-142.588)">
                                <path d="M4905.69,5035.58C4905.69,5012.9 4888.63,4994.5 4867.59,4994.5L3181.15,4994.5C3160.1,4994.5 3143.04,5012.9 3143.04,5035.58C3143.04,5196.41 3143.04,5782.39 3143.04,5943.23C3143.04,5965.91 3160.1,5984.3 3181.15,5984.3C3413.32,5984.3 4635.41,5984.3 4867.59,5984.3C4888.63,5984.3 4905.69,5965.91 4905.69,5943.23C4905.69,5782.39 4905.69,5196.41 4905.69,5035.58Z" style="fill:white;"/>
                            </g>
                            <g transform="matrix(1,0,0,1,-25,-5.92852)">
                                <rect x="3750" y="6000" width="500" height="20.19" style="fill:white;stroke:white;stroke-width:7.62px;"/>
                            </g>
                            <g transform="matrix(1.09923,0,0,1.01969,-424.177,-53.1612)">
                                <path d="M4905.69,5036.24C4905.69,5013.19 4888.36,4994.5 4866.98,4994.5C4633.49,4994.5 3415.25,4994.5 3181.76,4994.5C3160.38,4994.5 3143.04,5013.19 3143.04,5036.24C3143.04,5197.78 3143.04,5781.02 3143.04,5942.57C3143.04,5965.62 3160.38,5984.3 3181.76,5984.3L4866.98,5984.3C4888.36,5984.3 4905.69,5965.62 4905.69,5942.57L4905.69,5036.24Z" style="fill:rgb(128,128,128);fill-opacity:0.53;"/>
                            </g>
                            <g transform="matrix(1,0,0,1,1050.01,2468.48)">
                                <g transform="matrix(0.669762,0,0,0.552844,808.245,1548.35)">
                                    <rect x="2447.46" y="3356.28" width="286.01" height="106.374" style="fill:white;"/>
                                </g>
                                <g transform="matrix(0.669762,0,0,0.552844,1434.14,1548.35)">
                                    <rect x="2447.46" y="3356.28" width="286.01" height="106.374" style="fill:white;"/>
                                </g>
                                <g transform="matrix(0.669762,0,0,0.552844,2028.82,1536.71)">
                                    <rect x="2447.46" y="3356.28" width="286.01" height="106.374" style="fill:white;"/>
                                </g>
                                <g transform="matrix(0.380104,0,0,0.20891,1517.17,2667.16)">
                                    <rect x="2447.46" y="3356.28" width="286.01" height="106.374" style="fill:white;"/>
                                </g>
                                <g transform="matrix(0.380104,0,0,0.20891,2143.07,2667.16)">
                                    <rect x="2447.46" y="3356.28" width="286.01" height="106.374" style="fill:white;"/>
                                </g>
                                <g transform="matrix(0.380104,0,0,0.20891,2737.74,2655.52)">
                                    <rect x="2447.46" y="3356.28" width="286.01" height="106.374" style="fill:white;"/>
                                </g>
                                <g transform="matrix(0.352623,0,0,1,1740.75,-33.3479)">
                                    <rect x="2784.48" y="2873.52" width="945.41" height="66.696" style="fill:white;"/>
                                </g>
                                <g transform="matrix(1,0,0,1,-61.8531,89.1482)">
                                    <rect x="2784.48" y="2873.52" width="945.41" height="66.696" style="fill:white;"/>
                                </g>
                                <g transform="matrix(1.87404,0,0,1.13712,-3172.23,-624.533)">
                                    <rect x="2784.48" y="2873.52" width="945.41" height="66.696" style="fill:white;"/>
                                </g>
                                <g transform="matrix(0.573602,0,0,0.5,1125.44,1654.89)">
                                    <rect x="2784.48" y="2873.52" width="945.41" height="66.696" style="fill:white;"/>
                                </g>
                                <g id="Avatar" transform="matrix(11.5492,0,0,11.5492,524.605,1870.04)">
                                    <path d="M174,100C174,108.836 166.836,116 158,116C149.164,116 142,108.836 142,100C142,91.164 149.164,84 158,84C166.836,84 174,91.164 174,100ZM153.086,109.024C152.718,109.122 152.355,109.232 151.994,109.346C150.985,109.666 149.989,110.023 149,110.397C151.568,112.631 154.949,114 158.669,114C162.225,114 165.477,112.755 168,110.696C166.69,110.104 164.84,109.507 164.84,109.507C162.641,109.097 161.976,108.607 161.976,108.607C161.27,108.294 161.391,105.339 161.391,105.339C162.48,105.201 162.42,101.952 162.42,101.952C163.186,102.422 163.247,101.443 163.247,101.443C163.287,101.071 163.489,100.386 163.489,100.386C164.235,98.096 163.145,98.644 163.145,98.644C163.75,96.413 163.489,94.495 163.489,94.495C163.358,93.54 162.903,92.746 162.082,92.191C161.805,92.003 161.503,91.849 161.187,91.73C160.758,91.568 160.313,91.349 159.872,91.231C159.513,91.135 159.144,91.079 158.773,91.043C158.365,91.005 157.948,90.987 157.538,91.01C157.154,91.01 156.973,91.245 156.973,91.245C156.915,91.319 156.419,91.409 156.306,91.462C156.102,91.554 155.904,91.657 155.711,91.767C155.219,92.048 154.781,92.411 154.323,92.739C153.966,92.995 153.511,93.167 153.256,93.536C153.033,93.858 152.911,94.238 152.841,94.617C152.762,95.051 152.711,95.563 152.798,96.001C152.898,96.51 153.04,98.781 153.04,98.781C152.233,98.625 152.677,99.779 152.677,99.779C152.838,99.995 153.06,101.169 153.06,101.169C153.262,102.872 154.109,102.187 154.109,102.187C153.968,105.201 155.017,105.358 155.017,105.358C155.158,107.119 154.815,108.137 154.815,108.137C154.559,108.789 153.682,108.864 153.086,109.024Z" style="fill:white;"/>
                                </g>
                                <g id="Avatar1" serif:id="Avatar" transform="matrix(4.68908,0,0,4.68908,1582.11,2934.94)">
                                    <path d="M174,100C174,108.836 166.836,116 158,116C149.164,116 142,108.836 142,100C142,91.164 149.164,84 158,84C166.836,84 174,91.164 174,100ZM153.086,109.024C152.718,109.122 152.355,109.232 151.994,109.346C150.985,109.666 149.989,110.023 149,110.397C151.568,112.631 154.949,114 158.669,114C162.225,114 165.477,112.755 168,110.696C166.69,110.104 164.84,109.507 164.84,109.507C162.641,109.097 161.976,108.607 161.976,108.607C161.27,108.294 161.391,105.339 161.391,105.339C162.48,105.201 162.42,101.952 162.42,101.952C163.186,102.422 163.247,101.443 163.247,101.443C163.287,101.071 163.489,100.386 163.489,100.386C164.235,98.096 163.145,98.644 163.145,98.644C163.75,96.413 163.489,94.495 163.489,94.495C163.358,93.54 162.903,92.746 162.082,92.191C161.805,92.003 161.503,91.849 161.187,91.73C160.758,91.568 160.313,91.349 159.872,91.231C159.513,91.135 159.144,91.079 158.773,91.043C158.365,91.005 157.948,90.987 157.538,91.01C157.154,91.01 156.973,91.245 156.973,91.245C156.915,91.319 156.419,91.409 156.306,91.462C156.102,91.554 155.904,91.657 155.711,91.767C155.219,92.048 154.781,92.411 154.323,92.739C153.966,92.995 153.511,93.167 153.256,93.536C153.033,93.858 152.911,94.238 152.841,94.617C152.762,95.051 152.711,95.563 152.798,96.001C152.898,96.51 153.04,98.781 153.04,98.781C152.233,98.625 152.677,99.779 152.677,99.779C152.838,99.995 153.06,101.169 153.06,101.169C153.262,102.872 154.109,102.187 154.109,102.187C153.968,105.201 155.017,105.358 155.017,105.358C155.158,107.119 154.815,108.137 154.815,108.137C154.559,108.789 153.682,108.864 153.086,109.024Z" style="fill:white;"/>
                                </g>
                                <g id="Avatar2" serif:id="Avatar" transform="matrix(4.68908,0,0,4.68908,2182.55,2934.94)">
                                    <path d="M174,100C174,108.836 166.836,116 158,116C149.164,116 142,108.836 142,100C142,91.164 149.164,84 158,84C166.836,84 174,91.164 174,100ZM153.086,109.024C152.718,109.122 152.355,109.232 151.994,109.346C150.985,109.666 149.989,110.023 149,110.397C151.568,112.631 154.949,114 158.669,114C162.225,114 165.477,112.755 168,110.696C166.69,110.104 164.84,109.507 164.84,109.507C162.641,109.097 161.976,108.607 161.976,108.607C161.27,108.294 161.391,105.339 161.391,105.339C162.48,105.201 162.42,101.952 162.42,101.952C163.186,102.422 163.247,101.443 163.247,101.443C163.287,101.071 163.489,100.386 163.489,100.386C164.235,98.096 163.145,98.644 163.145,98.644C163.75,96.413 163.489,94.495 163.489,94.495C163.358,93.54 162.903,92.746 162.082,92.191C161.805,92.003 161.503,91.849 161.187,91.73C160.758,91.568 160.313,91.349 159.872,91.231C159.513,91.135 159.144,91.079 158.773,91.043C158.365,91.005 157.948,90.987 157.538,91.01C157.154,91.01 156.973,91.245 156.973,91.245C156.915,91.319 156.419,91.409 156.306,91.462C156.102,91.554 155.904,91.657 155.711,91.767C155.219,92.048 154.781,92.411 154.323,92.739C153.966,92.995 153.511,93.167 153.256,93.536C153.033,93.858 152.911,94.238 152.841,94.617C152.762,95.051 152.711,95.563 152.798,96.001C152.898,96.51 153.04,98.781 153.04,98.781C152.233,98.625 152.677,99.779 152.677,99.779C152.838,99.995 153.06,101.169 153.06,101.169C153.262,102.872 154.109,102.187 154.109,102.187C153.968,105.201 155.017,105.358 155.017,105.358C155.158,107.119 154.815,108.137 154.815,108.137C154.559,108.789 153.682,108.864 153.086,109.024Z" style="fill:white;"/>
                                </g>
                                <g id="Avatar3" serif:id="Avatar" transform="matrix(4.68908,0,0,4.68908,2783,2934.94)">
                                    <path d="M174,100C174,108.836 166.836,116 158,116C149.164,116 142,108.836 142,100C142,91.164 149.164,84 158,84C166.836,84 174,91.164 174,100ZM153.086,109.024C152.718,109.122 152.355,109.232 151.994,109.346C150.985,109.666 149.989,110.023 149,110.397C151.568,112.631 154.949,114 158.669,114C162.225,114 165.477,112.755 168,110.696C166.69,110.104 164.84,109.507 164.84,109.507C162.641,109.097 161.976,108.607 161.976,108.607C161.27,108.294 161.391,105.339 161.391,105.339C162.48,105.201 162.42,101.952 162.42,101.952C163.186,102.422 163.247,101.443 163.247,101.443C163.287,101.071 163.489,100.386 163.489,100.386C164.235,98.096 163.145,98.644 163.145,98.644C163.75,96.413 163.489,94.495 163.489,94.495C163.358,93.54 162.903,92.746 162.082,92.191C161.805,92.003 161.503,91.849 161.187,91.73C160.758,91.568 160.313,91.349 159.872,91.231C159.513,91.135 159.144,91.079 158.773,91.043C158.365,91.005 157.948,90.987 157.538,91.01C157.154,91.01 156.973,91.245 156.973,91.245C156.915,91.319 156.419,91.409 156.306,91.462C156.102,91.554 155.904,91.657 155.711,91.767C155.219,92.048 154.781,92.411 154.323,92.739C153.966,92.995 153.511,93.167 153.256,93.536C153.033,93.858 152.911,94.238 152.841,94.617C152.762,95.051 152.711,95.563 152.798,96.001C152.898,96.51 153.04,98.781 153.04,98.781C152.233,98.625 152.677,99.779 152.677,99.779C152.838,99.995 153.06,101.169 153.06,101.169C153.262,102.872 154.109,102.187 154.109,102.187C153.968,105.201 155.017,105.358 155.017,105.358C155.158,107.119 154.815,108.137 154.815,108.137C154.559,108.789 153.682,108.864 153.086,109.024Z" style="fill:white;"/>
                                </g>
                                <g id="Cancel" transform="matrix(0.725551,8.9431e-33,8.9431e-33,0.725551,1729.54,1259.58)">
                                    <path d="M486.05,1937C498.192,1937 508.05,1946.86 508.05,1959C508.05,1971.14 498.192,1981 486.05,1981C473.908,1981 464.05,1971.14 464.05,1959C464.05,1946.86 473.908,1937 486.05,1937ZM478.979,1950.52L477.565,1951.93L484.636,1959L477.565,1966.07L478.979,1967.49L486.05,1960.41L493.121,1967.49L494.535,1966.07L487.464,1959L494.535,1951.93L493.121,1950.52L486.05,1957.59L478.979,1950.52Z" style="fill:rgb(0,95,209);"/>
                                </g>
                            </g>
                            <g transform="matrix(0.0918561,0,0,0.0918561,4445.46,5068.28)">
                                <g transform="matrix(0.925875,0.37783,-0.37783,0.925875,1320.16,-565.539)">
                                    <g transform="matrix(1.11022e-16,1.18043,-1.18043,2.22045e-16,4579.05,-64.763)">
                                        <path d="M2665.6,1518.79L2944.48,2076.55L2386.73,2076.55L2665.6,1518.79Z" style="fill:white;"/>
                                    </g>
                                    <g transform="matrix(-1.17934,-0.0506273,0.0158437,-0.369073,5606.52,3668.07)">
                                        <path d="M2791.17,1205.63L2977.52,2072.02L2408.32,1258.15L2791.17,1205.63Z" style="fill:white;"/>
                                    </g>
                                </g>
                                <g transform="matrix(-0.446001,1.09293,1.09293,0.446001,996.296,-767.649)">
                                    <path d="M2665.6,1518.79L2944.48,2076.55L2665.6,1914.65L2386.73,2076.55L2665.6,1518.79Z" style="fill:white;"/>
                                </g>
                            </g>
                        </g>
                        <g transform="matrix(8.74378e-17,1.42797,-1.42797,8.74378e-17,15854.9,-5326.05)">
                            <g transform="matrix(7.2366e-17,-1.18183,0.552825,3.38507e-17,2814.06,8061.2)">
                                <path d="M2126.59,5543.46C2126.59,5531.93 2124.45,5520.88 2120.64,5512.73C2116.83,5504.58 2111.66,5500 2106.27,5500L1837.94,5500C1832.55,5500 1827.38,5504.58 1823.57,5512.73C1819.75,5520.88 1817.61,5531.93 1817.61,5543.46L1817.61,6660.92C1817.61,6672.44 1819.75,6683.49 1823.57,6691.64C1827.38,6699.79 1832.55,6704.37 1837.94,6704.37L2106.27,6704.37C2111.66,6704.37 2116.83,6699.79 2120.64,6691.64C2124.45,6683.49 2126.59,6672.44 2126.59,6660.92C2126.59,6473.01 2126.59,5731.37 2126.59,5543.46Z" style="fill:white;fill-opacity:0.68;"/>
                            </g>
                            <g transform="matrix(6.92255e-17,-1.13054,0.528833,3.23817e-17,2960.46,7960.05)">
                                <path d="M2126.59,5545.43C2126.59,5533.38 2124.36,5521.82 2120.37,5513.31C2116.39,5504.79 2110.98,5500 2105.35,5500C2048.84,5500 1895.36,5500 1838.86,5500C1833.23,5500 1827.82,5504.79 1823.84,5513.31C1819.85,5521.82 1817.61,5533.38 1817.61,5545.43L1817.61,6658.94C1817.61,6670.99 1819.85,6682.55 1823.84,6691.07C1827.82,6699.59 1833.23,6704.37 1838.86,6704.37C1895.36,6704.37 2048.84,6704.37 2105.35,6704.37C2110.98,6704.37 2116.39,6699.59 2120.37,6691.07C2124.36,6682.55 2126.59,6670.99 2126.59,6658.94L2126.59,5545.43Z" style="fill:url(#_Linear7);"/>
                            </g>
                            <g transform="matrix(6.12323e-17,-1,1,6.12323e-17,923.668,8493.83)">
                                <g transform="matrix(3.88274,0,0,0.625654,-7645.62,1853.24)">
                                    <rect x="2639.02" y="5057.53" width="83.603" height="162.771" style="fill:white;fill-opacity:0.68;"/>
                                </g>
                                <g transform="matrix(3.88274,0,0,0.312827,-7645.61,3602.28)">
                                    <rect x="2639.02" y="5057.53" width="83.603" height="162.771" style="fill:white;fill-opacity:0.68;"/>
                                </g>
                                <g transform="matrix(3.88274,0,0,0.283478,-7645.61,3830.13)">
                                    <rect x="2639.02" y="5057.53" width="83.603" height="162.771" style="fill:white;fill-opacity:0.68;"/>
                                </g>
                                <g transform="matrix(1.39104,0,0,0.160953,-870.471,4516.86)">
                                    <path d="M2722.62,5138.91C2722.62,5094 2718.41,5057.53 2713.21,5057.53L2648.44,5057.53C2643.24,5057.53 2639.02,5094 2639.02,5138.91C2639.02,5183.83 2643.24,5220.3 2648.44,5220.3L2713.21,5220.3C2718.41,5220.3 2722.62,5183.83 2722.62,5138.91Z" style="fill:white;fill-opacity:0.68;"/>
                                </g>
                            </g>
                            <g transform="matrix(6.12323e-17,-1,1,6.12323e-17,451.053,11930.5)">
                                <rect x="6112.5" y="6020.19" width="175" height="4.81" style="fill:white;fill-opacity:0.68;stroke:white;stroke-width:5.34px;"/>
                            </g>
                        </g>
                        <g transform="matrix(1,0,0,1,6422.22,-1655.39)">
                            <g transform="matrix(1.31557,0,0,0.684697,-581.93,1465.09)">
                                <path d="M2126.59,5550.1C2126.59,5522.43 2114.92,5500 2100.52,5500C2042.24,5500 1901.97,5500 1843.69,5500C1829.29,5500 1817.61,5522.43 1817.61,5550.1C1817.61,5745.93 1817.61,6458.44 1817.61,6654.27C1817.61,6681.94 1829.29,6704.37 1843.69,6704.37C1901.97,6704.37 2042.24,6704.37 2100.52,6704.37C2114.92,6704.37 2126.59,6681.94 2126.59,6654.27L2126.59,5550.1Z" style="fill:white;"/>
                            </g>
                            <g transform="matrix(1.29457,0,0,0.673771,-540.531,1531.76)">
                                <path d="M2126.59,5550.91C2126.59,5537.41 2123.8,5524.46 2118.83,5514.91C2113.86,5505.36 2107.12,5500 2100.1,5500C2041.7,5500 1902.5,5500 1844.11,5500C1837.08,5500 1830.34,5505.36 1825.37,5514.91C1820.4,5524.46 1817.61,5537.41 1817.61,5550.91L1817.61,6653.46C1817.61,6666.96 1820.4,6679.91 1825.37,6689.46C1830.34,6699.01 1837.08,6704.37 1844.11,6704.37C1902.5,6704.37 2041.7,6704.37 2100.1,6704.37C2107.12,6704.37 2113.86,6699.01 2118.83,6689.46C2123.8,6679.91 2126.59,6666.96 2126.59,6653.46L2126.59,5550.91Z" style="fill:rgb(128,128,128);"/>
                            </g>
                            <rect x="1900" y="5262.5" width="225" height="12.5" style="fill:white;stroke:white;stroke-width:7.62px;"/>
                            <g transform="matrix(1,0,0,1,-838.098,4537.73)">
                                <g transform="matrix(1,0,0,2.01655,-19.6148,-1343.15)">
                                    <path d="M2979.09,1074.11C2979.09,1067.15 2967.72,1061.52 2953.69,1061.52C2904.58,1061.52 2797.13,1061.52 2748.02,1061.52C2733.99,1061.52 2722.62,1067.15 2722.62,1074.11C2722.62,1096.54 2722.62,1143.16 2722.62,1165.59C2722.62,1172.54 2733.99,1178.18 2748.02,1178.18C2797.13,1178.18 2904.58,1178.18 2953.69,1178.18C2967.72,1178.18 2979.09,1172.54 2979.09,1165.59C2979.09,1143.16 2979.09,1096.54 2979.09,1074.11Z" style="fill:white;"/>
                                </g>
                                <g transform="matrix(1,0,0,2.01655,-23.8073,-1035.09)">
                                    <path d="M2979.09,1074.11C2979.09,1067.15 2967.72,1061.52 2953.69,1061.52L2748.02,1061.52C2733.99,1061.52 2722.62,1067.15 2722.62,1074.11C2722.62,1096.54 2722.62,1143.16 2722.62,1165.59C2722.62,1172.54 2733.99,1178.18 2748.02,1178.18C2797.13,1178.18 2904.58,1178.18 2953.69,1178.18C2967.72,1178.18 2979.09,1172.54 2979.09,1165.59C2979.09,1143.16 2979.09,1096.54 2979.09,1074.11Z" style="fill:white;"/>
                                </g>
                                <g transform="matrix(1,0,0,2.01655,252.486,-1343.15)">
                                    <path d="M2979.09,1074.11C2979.09,1067.15 2967.72,1061.52 2953.69,1061.52C2904.58,1061.52 2797.13,1061.52 2748.02,1061.52C2733.99,1061.52 2722.62,1067.15 2722.62,1074.11C2722.62,1096.54 2722.62,1143.16 2722.62,1165.59C2722.62,1172.54 2733.99,1178.18 2748.02,1178.18C2797.13,1178.18 2904.58,1178.18 2953.69,1178.18C2967.72,1178.18 2979.09,1172.54 2979.09,1165.59C2979.09,1143.16 2979.09,1096.54 2979.09,1074.11Z" style="fill:white;"/>
                                </g>
                                <g transform="matrix(0.457556,0,0,0.562696,1472.42,332.257)">
                                    <rect x="2689.47" y="1307.04" width="323.573" height="20.449" style="fill:white;"/>
                                </g>
                            </g>
                            <g id="Musical-Note" serif:id="Musical Note" transform="matrix(4.16648,3.08149e-31,-5.13581e-32,4.16648,1118.47,5199.71)">
                                <path d="M214.042,48.035L203.982,50.295C203.442,50.416 203,50.97 203,51.525L203,53.015L202.984,53.015L202.984,65.597C202.984,66.146 202.546,66.694 202.012,66.817L199.251,67.444C198.013,67.725 197,68.997 197,70.271L197,70.495C197,71.879 198.118,73 199.498,73L200.459,73C202.37,73 203.919,71.447 203.919,69.531L203.919,60.845L203.936,60.845L203.936,56.91C203.936,56.472 204.286,56.042 204.714,55.956L213.861,54.097C214.219,54.025 214.554,54.299 214.554,54.666L214.554,62.591C214.554,63.14 214.117,63.687 213.582,63.808L210.737,64.447C209.507,64.722 208.5,65.984 208.5,67.249L208.5,67.481C208.5,68.87 209.623,69.995 211.007,69.995L212.005,69.995C213.936,69.995 215.5,68.426 215.5,66.492L215.5,50.007L215.498,50.007L215.498,49.207C215.498,48.491 215.005,48 214.351,48C214.252,48 214.148,48.012 214.042,48.035Z" style="fill:rgb(128,128,128);"/>
                            </g>
                            <g id="Musical-Note1" serif:id="Musical Note" transform="matrix(4.16648,3.08149e-31,-5.13581e-32,4.16648,1399.63,5199.71)">
                                <path d="M214.042,48.035L203.982,50.295C203.442,50.416 203,50.97 203,51.525L203,53.015L202.984,53.015L202.984,65.597C202.984,66.146 202.546,66.694 202.012,66.817L199.251,67.444C198.013,67.725 197,68.997 197,70.271L197,70.495C197,71.879 198.118,73 199.498,73L200.459,73C202.37,73 203.919,71.447 203.919,69.531L203.919,60.845L203.936,60.845L203.936,56.91C203.936,56.472 204.286,56.042 204.714,55.956L213.861,54.097C214.219,54.025 214.554,54.299 214.554,54.666L214.554,62.591C214.554,63.14 214.117,63.687 213.582,63.808L210.737,64.447C209.507,64.722 208.5,65.984 208.5,67.249L208.5,67.481C208.5,68.87 209.623,69.995 211.007,69.995L212.005,69.995C213.936,69.995 215.5,68.426 215.5,66.492L215.5,50.007L215.498,50.007L215.498,49.207C215.498,48.491 215.005,48 214.351,48C214.252,48 214.148,48.012 214.042,48.035Z" style="fill:rgb(128,128,128);"/>
                            </g>
                            <g id="Musical-Note2" serif:id="Musical Note" transform="matrix(4.16648,3.08149e-31,-5.13581e-32,4.16648,1118.47,5504.88)">
                                <path d="M214.042,48.035L203.982,50.295C203.442,50.416 203,50.97 203,51.525L203,53.015L202.984,53.015L202.984,65.597C202.984,66.146 202.546,66.694 202.012,66.817L199.251,67.444C198.013,67.725 197,68.997 197,70.271L197,70.495C197,71.879 198.118,73 199.498,73L200.459,73C202.37,73 203.919,71.447 203.919,69.531L203.919,60.845L203.936,60.845L203.936,56.91C203.936,56.472 204.286,56.042 204.714,55.956L213.861,54.097C214.219,54.025 214.554,54.299 214.554,54.666L214.554,62.591C214.554,63.14 214.117,63.687 213.582,63.808L210.737,64.447C209.507,64.722 208.5,65.984 208.5,67.249L208.5,67.481C208.5,68.87 209.623,69.995 211.007,69.995L212.005,69.995C213.936,69.995 215.5,68.426 215.5,66.492L215.5,50.007L215.498,50.007L215.498,49.207C215.498,48.491 215.005,48 214.351,48C214.252,48 214.148,48.012 214.042,48.035Z" style="fill:rgb(128,128,128);"/>
                            </g>
                            <g id="Play" transform="matrix(1.87721,2.54522e-31,-2.31384e-32,1.87721,1554.56,5392.4)">
                                <path d="M236,284.2C236,283.265 237.064,282.69 237.894,283.177L255.404,293.479C256.198,293.945 256.198,295.055 255.404,295.522C252.694,297.117 250.661,298.312 249.306,299.11C246.77,300.601 242.966,302.839 237.894,305.823C237.064,306.31 236,305.736 236,304.801L236,284.2Z" style="fill:white;"/>
                            </g>
                            <g id="Back" transform="matrix(1.87721,2.31384e-31,-2.31384e-32,1.87721,1522.01,5391.47)">
                                <path d="M210,287.832C210,287.187 209.373,286.789 208.878,287.118L198.117,294.286C198.042,294.337 197.982,294.402 197.93,294.472L197.93,287.853C197.93,287.204 197.295,286.805 196.8,287.143L186.355,294.291C185.882,294.615 185.882,295.385 186.355,295.709L196.8,302.856C197.295,303.194 197.93,302.796 197.93,302.147L197.93,295.528C197.982,295.598 198.042,295.662 198.117,295.714L208.878,302.882C209.373,303.212 210,302.812 210,302.167L210,287.832Z" style="fill:white;"/>
                            </g>
                            <g id="Forward" transform="matrix(1.87721,2.08246e-31,-2.31384e-32,1.87721,1593.75,5391.47)">
                                <path d="M279,287.832C279,287.187 279.627,286.789 280.122,287.118L290.883,294.286C290.958,294.337 291.018,294.402 291.07,294.472L291.07,287.853C291.07,287.204 291.705,286.805 292.2,287.143L302.645,294.291C303.118,294.615 303.118,295.385 302.645,295.709L292.2,302.856C291.705,303.194 291.07,302.796 291.07,302.147L291.07,295.528C291.018,295.598 290.958,295.662 290.883,295.714L280.122,302.882C279.627,303.212 279,302.812 279,302.167L279,287.832Z" style="fill:white;"/>
                            </g>
                        </g>
                        <g transform="matrix(1,0,0,1,4853.47,-3021.44)">
                            <g transform="matrix(1.31557,0,0,0.684697,-581.93,1465.09)">
                                <path d="M2126.59,5550.1C2126.59,5522.43 2114.92,5500 2100.52,5500C2042.24,5500 1901.97,5500 1843.69,5500C1829.29,5500 1817.61,5522.43 1817.61,5550.1C1817.61,5745.93 1817.61,6458.44 1817.61,6654.27C1817.61,6681.94 1829.29,6704.37 1843.69,6704.37C1901.97,6704.37 2042.24,6704.37 2100.52,6704.37C2114.92,6704.37 2126.59,6681.94 2126.59,6654.27C2126.59,6458.44 2126.59,5745.93 2126.59,5550.1Z" style="fill:white;fill-opacity:0.57;"/>
                            </g>
                            <g transform="matrix(1.29457,0,0,0.673771,-540.531,1531.76)">
                                <path d="M2126.59,5550.91C2126.59,5537.41 2123.8,5524.46 2118.83,5514.91C2113.86,5505.36 2107.12,5500 2100.1,5500C2041.7,5500 1902.5,5500 1844.11,5500C1837.08,5500 1830.34,5505.36 1825.37,5514.91C1820.4,5524.46 1817.61,5537.41 1817.61,5550.91L1817.61,6653.46C1817.61,6666.96 1820.4,6679.91 1825.37,6689.46C1830.34,6699.01 1837.08,6704.37 1844.11,6704.37L2100.1,6704.37C2107.12,6704.37 2113.86,6699.01 2118.83,6689.46C2123.8,6679.91 2126.59,6666.96 2126.59,6653.46C2126.59,6456.75 2126.59,5747.62 2126.59,5550.91Z" style="fill:url(#_Linear8);"/>
                            </g>
                            <rect x="1900" y="5262.5" width="225" height="12.5" style="fill:white;fill-opacity:0.57;stroke:white;stroke-width:7.62px;"/>
                            <g transform="matrix(1,0,0,1,-838.098,4537.73)">
                                <g transform="matrix(1,0,0,2.01655,-33.1504,-1110.93)">
                                    <path d="M2979.09,1074.11C2979.09,1067.15 2967.72,1061.52 2953.69,1061.52C2904.58,1061.52 2797.13,1061.52 2748.02,1061.52C2733.99,1061.52 2722.62,1067.15 2722.62,1074.11C2722.62,1096.54 2722.62,1143.16 2722.62,1165.59C2722.62,1172.54 2733.99,1178.18 2748.02,1178.18C2797.13,1178.18 2904.58,1178.18 2953.69,1178.18C2967.72,1178.18 2979.09,1172.54 2979.09,1165.59C2979.09,1143.16 2979.09,1096.54 2979.09,1074.11Z" style="fill:white;fill-opacity:0.57;"/>
                                </g>
                                <g transform="matrix(1,0,0,2.01655,238.95,-1110.93)">
                                    <path d="M2979.09,1074.11C2979.09,1067.15 2967.72,1061.52 2953.69,1061.52C2904.58,1061.52 2797.13,1061.52 2748.02,1061.52C2733.99,1061.52 2722.62,1067.15 2722.62,1074.11C2722.62,1096.54 2722.62,1143.16 2722.62,1165.59C2722.62,1172.54 2733.99,1178.18 2748.02,1178.18C2797.13,1178.18 2904.58,1178.18 2953.69,1178.18C2967.72,1178.18 2979.09,1172.54 2979.09,1165.59C2979.09,1143.16 2979.09,1096.54 2979.09,1074.11Z" style="fill:white;fill-opacity:0.57;"/>
                                </g>
                                <g id="Avatar4" serif:id="Avatar" transform="matrix(4.16849,0,0,4.16849,2192.55,488.812)">
                                    <path d="M174,100C174,108.836 166.836,116 158,116C149.164,116 142,108.836 142,100C142,91.164 149.164,84 158,84C166.836,84 174,91.164 174,100ZM153.086,109.024C152.718,109.122 152.355,109.232 151.994,109.346C150.985,109.666 149.989,110.023 149,110.397C151.568,112.631 154.949,114 158.669,114C162.225,114 165.477,112.755 168,110.696C166.69,110.104 164.84,109.507 164.84,109.507C162.641,109.097 161.976,108.607 161.976,108.607C161.27,108.294 161.391,105.339 161.391,105.339C162.48,105.201 162.42,101.952 162.42,101.952C163.186,102.422 163.247,101.443 163.247,101.443C163.287,101.071 163.489,100.386 163.489,100.386C164.235,98.096 163.145,98.644 163.145,98.644C163.75,96.413 163.489,94.495 163.489,94.495C163.358,93.54 162.903,92.746 162.082,92.191C161.805,92.003 161.503,91.849 161.187,91.73C160.758,91.568 160.313,91.349 159.872,91.231C159.513,91.135 159.144,91.079 158.773,91.043C158.365,91.005 157.948,90.987 157.538,91.01C157.154,91.01 156.973,91.245 156.973,91.245C156.915,91.319 156.419,91.409 156.306,91.462C156.102,91.554 155.904,91.657 155.711,91.767C155.219,92.048 154.781,92.411 154.323,92.739C153.966,92.995 153.511,93.167 153.256,93.536C153.033,93.858 152.911,94.238 152.841,94.617C152.762,95.051 152.711,95.563 152.798,96.001C152.898,96.51 153.04,98.781 153.04,98.781C152.233,98.625 152.677,99.779 152.677,99.779C152.838,99.995 153.06,101.169 153.06,101.169C153.262,102.872 154.109,102.187 154.109,102.187C153.968,105.201 155.017,105.358 155.017,105.358C155.158,107.119 154.815,108.137 154.815,108.137C154.559,108.789 153.682,108.864 153.086,109.024Z" style="fill:white;fill-opacity:0.57;"/>
                                </g>
                                <g transform="matrix(0.457556,0,0,0.562696,1472.42,565.527)">
                                    <rect x="2689.47" y="1307.04" width="323.573" height="20.449" style="fill:white;fill-opacity:0.57;"/>
                                </g>
                                <g transform="matrix(1.44435,0,0,0.468286,-1266.57,922.875)">
                                    <rect x="2722.62" y="1061.52" width="256.46" height="116.664" style="fill:white;fill-opacity:0.57;"/>
                                </g>
                            </g>
                            <g transform="matrix(0.0918561,0,0,0.0918561,1785.39,5402.23)">
                                <g transform="matrix(0.925875,0.37783,-0.37783,0.925875,1320.16,-565.539)">
                                    <g transform="matrix(1.11022e-16,1.18043,-1.18043,2.22045e-16,4579.05,-64.763)">
                                        <path d="M2665.6,1518.79L2944.48,2076.55L2386.73,2076.55L2665.6,1518.79Z" style="fill:rgb(0,95,209);fill-opacity:0.57;"/>
                                    </g>
                                    <g transform="matrix(-1.17934,-0.0506273,0.0158437,-0.369073,5606.52,3668.07)">
                                        <path d="M2791.17,1205.63L2977.52,2072.02L2408.32,1258.15L2791.17,1205.63Z" style="fill:rgb(0,95,209);fill-opacity:0.57;"/>
                                    </g>
                                </g>
                                <g transform="matrix(-0.446001,1.09293,1.09293,0.446001,996.296,-767.649)">
                                    <path d="M2665.6,1518.79L2944.48,2076.55L2665.6,1914.65L2386.73,2076.55L2665.6,1518.79Z" style="fill:rgb(0,95,209);fill-opacity:0.57;"/>
                                </g>
                            </g>
                        </g>
                        <g transform="matrix(9.47017e-17,1.5466,-1.5466,9.47017e-17,17469.3,-6947.76)">
                            <g transform="matrix(7.2366e-17,-1.18183,0.552825,3.38507e-17,2814.06,8061.2)">
                                <path d="M2126.59,5540.12C2126.59,5517.96 2118.19,5500 2107.83,5500C2052.67,5500 1891.53,5500 1836.38,5500C1826.02,5500 1817.61,5517.96 1817.61,5540.12L1817.61,6664.25C1817.61,6686.41 1826.02,6704.37 1836.38,6704.37C1891.53,6704.37 2052.67,6704.37 2107.83,6704.37C2118.19,6704.37 2126.59,6686.41 2126.59,6664.25L2126.59,5540.12Z" style="fill:white;fill-opacity:0.61;"/>
                            </g>
                            <g transform="matrix(6.92255e-17,-1.13054,0.528833,3.23817e-17,2960.46,7960.05)">
                                <path d="M2126.59,5541.94C2126.59,5518.78 2117.81,5500 2106.97,5500L1837.23,5500C1826.4,5500 1817.61,5518.78 1817.61,5541.94L1817.61,6662.43C1817.61,6685.59 1826.4,6704.37 1837.23,6704.37L2106.97,6704.37C2117.81,6704.37 2126.59,6685.59 2126.59,6662.43L2126.59,5541.94Z" style="fill:url(#_Linear9);"/>
                            </g>
                            <g transform="matrix(6.12323e-17,-1,1,6.12323e-17,923.668,8493.83)">
                                <g transform="matrix(1,0,0,1,50.1308,0)">
                                    <rect x="2501.82" y="5444.79" width="150.973" height="26.875" style="fill:white;fill-opacity:0.61;"/>
                                </g>
                                <g transform="matrix(1,0,0,1,220.805,0)">
                                    <rect x="2501.82" y="5444.79" width="150.973" height="26.875" style="fill:white;fill-opacity:0.61;"/>
                                </g>
                                <g transform="matrix(3.88274,0,0,2.44818,-7647.81,-7371.71)">
                                    <rect x="2639.02" y="5057.53" width="83.603" height="162.771" style="fill:white;fill-opacity:0.61;"/>
                                </g>
                                <g transform="matrix(1,0,0,1,-83.6029,49.4264)">
                                    <g transform="matrix(-0.89334,-1.09403e-16,8.6944e-17,-0.709951,5218.76,8770.22)">
                                        <path d="M2758.39,5060.48C2758.39,5060.48 2722.62,5147.59 2722.62,5184.91C2722.62,5209.75 2738.65,5229.92 2758.39,5229.92C2778.13,5229.92 2794.16,5209.75 2794.16,5184.91C2794.16,5147.59 2758.39,5060.48 2758.39,5060.48Z" style="fill:rgb(0,95,209);fill-opacity:0.61;"/>
                                    </g>
                                    <g transform="matrix(-0.183052,-2.24174e-17,1.24636e-17,-0.101773,3259.5,5610.12)">
                                        <path d="M2758.39,5060.48C2758.39,5060.48 2722.62,5134.06 2722.62,5165.59C2722.62,5201.09 2738.65,5229.92 2758.39,5229.92C2778.13,5229.92 2794.16,5201.09 2794.16,5165.59C2794.16,5134.06 2758.39,5060.48 2758.39,5060.48Z" style="fill:white;fill-opacity:0.61;"/>
                                    </g>
                                </g>
                                <g transform="matrix(0.449297,0,0,0.449297,1529.64,2789.89)">
                                    <g transform="matrix(-0.89334,-1.09403e-16,8.6944e-17,-0.709951,5218.76,8770.22)">
                                        <path d="M2758.39,5060.48C2758.39,5060.48 2722.62,5147.59 2722.62,5184.91C2722.62,5209.75 2738.65,5229.92 2758.39,5229.92C2778.13,5229.92 2794.16,5209.75 2794.16,5184.91C2794.16,5147.59 2758.39,5060.48 2758.39,5060.48Z" style="fill:rgb(0,95,209);fill-opacity:0.61;"/>
                                    </g>
                                    <g transform="matrix(-0.183052,-2.24174e-17,1.24636e-17,-0.101773,3259.5,5610.12)">
                                        <path d="M2758.39,5060.48C2758.39,5060.48 2722.62,5134.06 2722.62,5165.59C2722.62,5201.09 2738.65,5229.92 2758.39,5229.92C2778.13,5229.92 2794.16,5201.09 2794.16,5165.59C2794.16,5134.06 2758.39,5060.48 2758.39,5060.48Z" style="fill:white;fill-opacity:0.61;"/>
                                    </g>
                                </g>
                            </g>
                            <g transform="matrix(6.12323e-17,-1,1,6.12323e-17,451.053,11930.5)">
                                <rect x="6112.5" y="6020.19" width="175" height="4.81" style="fill:white;fill-opacity:0.61;stroke:white;stroke-width:4.93px;"/>
                            </g>
                            <g transform="matrix(5.62456e-18,-0.0918561,0.0918561,5.62456e-18,5973.31,5923.54)">
                                <g transform="matrix(0.925875,0.37783,-0.37783,0.925875,1320.16,-565.539)">
                                    <g transform="matrix(1.11022e-16,1.18043,-1.18043,2.22045e-16,4579.05,-64.763)">
                                        <path d="M2665.6,1518.79L2944.48,2076.55L2386.73,2076.55L2665.6,1518.79Z" style="fill:rgb(0,95,209);fill-opacity:0.61;"/>
                                    </g>
                                    <g transform="matrix(-1.17934,-0.0506273,0.0158437,-0.369073,5606.52,3668.07)">
                                        <path d="M2791.17,1205.63L2977.52,2072.02L2408.32,1258.15L2791.17,1205.63Z" style="fill:rgb(0,95,209);fill-opacity:0.61;"/>
                                    </g>
                                </g>
                                <g transform="matrix(-0.446001,1.09293,1.09293,0.446001,996.296,-767.649)">
                                    <path d="M2665.6,1518.79L2944.48,2076.55L2665.6,1914.65L2386.73,2076.55L2665.6,1518.79Z" style="fill:rgb(0,95,209);fill-opacity:0.61;"/>
                                </g>
                            </g>
                        </g>
                        <g transform="matrix(1,0,0,1,323.917,66.8633)">
                            <rect x="3683.96" y="-526.531" width="7971.46" height="7042.63" style="fill:url(#_Linear10);"/>
                        </g>
                    </g>
                </g>
                <g transform="matrix(0.969245,0,0,1.14107,1283.67,-3390.84)">
                    <path d="M1051.7,4107.78C1051.7,4107.78 1697.65,7514.63 3176.7,7152.1C3622.95,7042.73 2719.2,3407.49 3845.79,5000C5174.86,6878.75 8672.16,1427.3 8750,2334.95C8756.74,2413.59 12911.6,10794.4 7750,5237.5C7255.78,4705.43 6555.41,6002.3 5500,6010.46C4764.7,6016.14 3766.71,5680.47 3306.96,4755.68C2780.84,3697.4 3598.62,8068.31 2551.7,7257.78C1342.2,6321.37 1051.7,4107.78 1051.7,4107.78Z" style="fill:url(#_Linear11);"/>
                </g>
            </g>
        </g>
    </g>

</svg>
